<!DOCTYPE svg PUBLIC "-//W3C//DTD SVG 1.1//EN" "http://www.w3.org/Graphics/SVG/1.1/DTD/svg11.dtd">

<!-- Uploaded to: SVG Repo, www.svgrepo.com, Transformed by: SVG Repo Mixer Tools -->
<svg height="20px" width="20px" version="1.1" id="Layer_1" xmlns="http://www.w3.org/2000/svg" xmlns:xlink="http://www.w3.org/1999/xlink" viewBox="0 0 512 512" xml:space="preserve" fill="#000000">

<g id="SVGRepo_bgCarrier" stroke-width="0"/>

<g id="SVGRepo_tracerCarrier" stroke-linecap="round" stroke-linejoin="round"/>

<g id="SVGRepo_iconCarrier"> <path style="fill:#FF3501;" d="M256,0C154.739,0,72.348,82.386,72.348,183.652c0,67.027,16.956,92.392,148.945,289.772 l20.826,31.157C245.217,509.217,250.424,512,256,512s10.782-2.783,13.881-7.418l17.369-25.978 c135.054-202.011,152.402-227.967,152.402-294.951C439.652,82.386,357.261,0,256,0z M256,267.13 c-46.032,0-83.478-37.446-83.478-83.478s37.446-83.478,83.478-83.478s83.478,37.446,83.478,83.478S302.032,267.13,256,267.13z"/> <path style="fill:#FF3501;" d="M256,0v100.174c46.032,0,83.478,37.446,83.478,83.478S302.032,267.13,256,267.13V512 c5.576,0,10.782-2.783,13.881-7.418l17.369-25.978c135.054-202.011,152.402-227.967,152.402-294.951C439.652,82.386,357.261,0,256,0 z"/> </g>

</svg>